<svg xmlns="http://www.w3.org/2000/svg" viewBox="0 0 600 600" width="600" height="600">
  <defs>
    <radialGradient id="bg" cx="50%" cy="40%" r="70%"><stop offset="0%" stop-color="#FFFFF0"/><stop offset="100%" stop-color="#F5F0D5"/></radialGradient>
    <linearGradient id="bottle" x1="0%" y1="0%" x2="100%" y2="100%"><stop offset="0%" stop-color="#FFFFFF" stop-opacity="0.9"/><stop offset="100%" stop-color="#F8F5D8"/></linearGradient>
    <filter id="shadow"><feDropShadow dx="0" dy="10" stdDeviation="16" flood-color="#806020" flood-opacity="0.14"/></filter>
  </defs>
  <rect width="600" height="600" fill="url(#bg)"/>
  <g fill="none" stroke="#C8A830" stroke-width="0.8" opacity="0.25">
    <polygon points="120,180 148,164 176,180 176,212 148,228 120,212"/>
    <polygon points="450,350 478,334 506,350 506,382 478,398 450,382"/>
    <polygon points="90,380 110,368 130,380 130,404 110,416 90,404"/>
  </g>
  <g transform="translate(195, 50)" filter="url(#shadow)">
    <rect x="54" y="0" width="102" height="56" rx="6" fill="#C8A830"/>
    <rect x="61" y="6" width="88" height="44" rx="5" fill="#D8B840"/>
    <line x1="75" y1="6" x2="75" y2="50" stroke="#B89020" stroke-width="1" opacity="0.5"/>
    <line x1="91" y1="6" x2="91" y2="50" stroke="#B89020" stroke-width="1" opacity="0.5"/>
    <line x1="107" y1="6" x2="107" y2="50" stroke="#B89020" stroke-width="1" opacity="0.5"/>
    <line x1="123" y1="6" x2="123" y2="50" stroke="#B89020" stroke-width="1" opacity="0.5"/>
    <line x1="139" y1="6" x2="139" y2="50" stroke="#B89020" stroke-width="1" opacity="0.5"/>
    <rect x="60" y="56" width="90" height="12" rx="3" fill="#A88020"/>
    <rect x="50" y="68" width="110" height="390" rx="10" fill="url(#bottle)"/>
    <rect x="54" y="72" width="8" height="380" rx="4" fill="#FFFFFF" opacity="0.5"/>
    <rect x="58" y="162" width="94" height="162" rx="4" fill="#FFFFFF" opacity="0.84"/>
    <rect x="58" y="162" width="94" height="22" rx="4" fill="#C8A830" opacity="0.7"/>
    <text x="105" y="177" text-anchor="middle" font-family="Arial, sans-serif" font-size="10" font-weight="bold" fill="#FFFFFF">7% AHA</text>
    <rect x="66" y="195" width="78" height="3" rx="1.5" fill="#3A2A0A" opacity="0.45"/>
    <rect x="70" y="205" width="70" height="2" rx="1" fill="#3A2A0A" opacity="0.28"/>
    <rect x="66" y="222" width="78" height="12" rx="2.5" fill="#D8B840" opacity="0.5"/>
    <rect x="66" y="241" width="78" height="2" rx="1" fill="#3A2A0A" opacity="0.18"/>
    <rect x="66" y="250" width="60" height="2" rx="1" fill="#3A2A0A" opacity="0.13"/>
    <rect x="66" y="295" width="40" height="2" rx="1" fill="#C8A830" opacity="0.4"/>
    <rect x="50" y="380" width="110" height="78" rx="10" fill="#FFF8D0" opacity="0.25"/>
    <rect x="50" y="450" width="110" height="8" rx="4" fill="#A88020" opacity="0.35"/>
  </g>
</svg>