<svg xmlns="http://www.w3.org/2000/svg" viewBox="0 0 600 600" width="600" height="600">
  <defs>
    <radialGradient id="bg" cx="50%" cy="40%" r="70%">
      <stop offset="0%" stop-color="#F8F4E8"/>
      <stop offset="100%" stop-color="#EDE3C8"/>
    </radialGradient>
    <linearGradient id="bottle" x1="0%" y1="0%" x2="100%" y2="100%">
      <stop offset="0%" stop-color="#FFFDF0"/>
      <stop offset="50%" stop-color="#F5EDCA"/>
      <stop offset="100%" stop-color="#E0CB90"/>
    </linearGradient>
    <filter id="shadow">
      <feDropShadow dx="0" dy="10" stdDeviation="16" flood-color="#706030" flood-opacity="0.18"/>
    </filter>
  </defs>
  <rect width="600" height="600" fill="url(#bg)"/>
  <g opacity="0.25" fill="#8A8050" stroke="none">
    <ellipse cx="120" cy="150" rx="60" ry="25" transform="rotate(-45 120 150)"/>
    <ellipse cx="480" cy="450" rx="50" ry="20" transform="rotate(40 480 450)"/>
    <ellipse cx="460" cy="160" rx="40" ry="16" transform="rotate(-20 460 160)"/>
    <ellipse cx="140" cy="440" rx="45" ry="18" transform="rotate(55 140 440)"/>
  </g>
  <g stroke="#A09060" stroke-width="0.5" fill="none" opacity="0.2">
    <line x1="90" y1="166" x2="150" y2="134"/>
    <line x1="120" y1="150" x2="120" y2="160"/>
    <line x1="110" y1="155" x2="130" y2="145"/>
  </g>
  <g transform="translate(195, 65)" filter="url(#shadow)">
    <rect x="50" y="0" width="110" height="52" rx="6" fill="#8A7040"/>
    <rect x="58" y="6" width="94" height="10" rx="3" fill="#A09060" opacity="0.5"/>
    <rect x="58" y="20" width="94" height="10" rx="3" fill="#A09060" opacity="0.5"/>
    <rect x="58" y="34" width="94" height="10" rx="3" fill="#A09060" opacity="0.5"/>
    <rect x="68" y="52" width="74" height="20" rx="4" fill="#B09060"/>
    <rect x="48" y="72" width="114" height="390" rx="12" fill="url(#bottle)"/>
    <rect x="54" y="78" width="8" height="375" rx="4" fill="#FFFFFF" opacity="0.4"/>
    <rect x="60" y="168" width="90" height="150" rx="4" fill="#F5EDCA" opacity="0.9"/>
    <rect x="60" y="168" width="90" height="4" rx="2" fill="#8A7040" opacity="0.5"/>
    <rect x="60" y="314" width="90" height="4" rx="2" fill="#8A7040" opacity="0.5"/>
    <rect x="68" y="183" width="74" height="3" rx="1.5" fill="#4A3A20" opacity="0.5"/>
    <rect x="72" y="193" width="66" height="2" rx="1" fill="#4A3A20" opacity="0.3"/>
    <rect x="68" y="210" width="74" height="12" rx="2" fill="#C0A860" opacity="0.55"/>
    <rect x="68" y="228" width="74" height="2" rx="1" fill="#4A3A20" opacity="0.2"/>
    <rect x="68" y="237" width="56" height="2" rx="1" fill="#4A3A20" opacity="0.15"/>
    <rect x="68" y="246" width="65" height="2" rx="1" fill="#4A3A20" opacity="0.15"/>
    <rect x="68" y="285" width="40" height="2" rx="1" fill="#C0A860" opacity="0.4"/>
    <rect x="48" y="454" width="114" height="8" rx="4" fill="#8A7040" opacity="0.35"/>
  </g>
  <ellipse cx="150" cy="350" rx="10" ry="16" fill="#C0A860" opacity="0.3" transform="rotate(-10 150 350)"/>
  <ellipse cx="440" cy="280" rx="8" ry="13" fill="#A09060" opacity="0.25" transform="rotate(20 440 280)"/>
</svg>