<svg xmlns="http://www.w3.org/2000/svg" viewBox="0 0 600 600" width="600" height="600">
  <defs>
    <radialGradient id="bg" cx="50%" cy="40%" r="70%"><stop offset="0%" stop-color="#FFFEF5"/><stop offset="100%" stop-color="#F5F0D8"/></radialGradient>
    <linearGradient id="tin" x1="0%" y1="0%" x2="100%" y2="100%"><stop offset="0%" stop-color="#F8F8F5"/><stop offset="100%" stop-color="#E8E5D5"/></linearGradient>
    <filter id="shadow"><feDropShadow dx="0" dy="8" stdDeviation="14" flood-color="#605840" flood-opacity="0.14"/></filter>
  </defs>
  <rect width="600" height="600" fill="url(#bg)"/>
  <g stroke="#F5D842" stroke-width="0.6" fill="none" opacity="0.2">
    <line x1="300" y1="80" x2="300" y2="40"/><line x1="300" y1="80" x2="335" y2="55"/>
    <line x1="300" y1="80" x2="345" y2="80"/><line x1="300" y1="80" x2="335" y2="105"/>
    <line x1="300" y1="80" x2="300" y2="120"/><line x1="300" y1="80" x2="265" y2="105"/>
    <line x1="300" y1="80" x2="255" y2="80"/><line x1="300" y1="80" x2="265" y2="55"/>
  </g>
  <g transform="translate(190, 185)" filter="url(#shadow)">
    <ellipse cx="110" cy="240" rx="108" ry="18" fill="#A09070" opacity="0.2"/>
    <rect x="10" y="100" width="200" height="140" rx="10" fill="url(#tin)"/>
    <rect x="10" y="100" width="200" height="8" rx="4" fill="#C4A882" opacity="0.5"/>
    <rect x="10" y="232" width="200" height="8" rx="4" fill="#C4A882" opacity="0.5"/>
    <ellipse cx="110" cy="100" rx="100" ry="20" fill="#EDE8D8"/>
    <ellipse cx="110" cy="88" rx="100" ry="20" fill="#F0EBE0"/>
    <ellipse cx="110" cy="76" rx="100" ry="20" fill="#F5F0E8"/>
    <ellipse cx="110" cy="66" rx="100" ry="20" fill="#FAFAF5"/>
    <ellipse cx="110" cy="58" rx="100" ry="20" fill="#FDFDFA"/>
    <ellipse cx="110" cy="56" rx="70" ry="12" fill="none" stroke="#C4A882" stroke-width="1.5"/>
    <path d="M90 55 Q110 47 130 55 Q110 63 90 55Z" fill="none" stroke="#C4A882" stroke-width="1.2" opacity="0.7"/>
    <circle cx="110" cy="55" r="5" fill="none" stroke="#C4A882" stroke-width="1" opacity="0.6"/>
    <rect x="28" y="114" width="164" height="110" rx="4" fill="#FFFFFF" opacity="0.7"/>
    <rect x="40" y="128" width="140" height="3" rx="1.5" fill="#3A2A10" opacity="0.42"/>
    <rect x="52" y="139" width="116" height="2" rx="1" fill="#3A2A10" opacity="0.25"/>
    <rect x="40" y="156" width="140" height="12" rx="3" fill="#F5D842" opacity="0.45"/>
    <rect x="40" y="175" width="140" height="2" rx="1" fill="#3A2A10" opacity="0.16"/>
    <rect x="40" y="184" width="108" height="2" rx="1" fill="#3A2A10" opacity="0.13"/>
    <rect x="40" y="204" width="65" height="2" rx="1" fill="#F5D842" opacity="0.4"/>
  </g>
</svg>