<svg xmlns="http://www.w3.org/2000/svg" viewBox="0 0 600 600" width="600" height="600">
  <defs>
    <radialGradient id="bg" cx="50%" cy="40%" r="70%"><stop offset="0%" stop-color="#FFF8F0"/><stop offset="100%" stop-color="#F5EADC"/></radialGradient>
    <linearGradient id="shaker" x1="0%" y1="0%" x2="100%" y2="100%"><stop offset="0%" stop-color="#FAFAF7"/><stop offset="100%" stop-color="#EDE3D5"/></linearGradient>
    <filter id="shadow"><feDropShadow dx="0" dy="10" stdDeviation="16" flood-color="#806040" flood-opacity="0.15"/></filter>
  </defs>
  <rect width="600" height="600" fill="url(#bg)"/>
  <g fill="#E8D8C0" opacity="0.4">
    <circle cx="120" cy="300" r="3"/><circle cx="135" cy="285" r="2"/><circle cx="110" cy="318" r="2.5"/>
    <circle cx="128" cy="310" r="1.5"/><circle cx="145" cy="298" r="3"/>
    <circle cx="450" cy="200" r="3"/><circle cx="465" cy="188" r="2"/><circle cx="442" cy="215" r="2.5"/>
  </g>
  <g opacity="0.25">
    <path d="M460 380 Q480 350 500 380 Q490 420 460 430 Z" fill="#F5A050"/>
    <ellipse cx="480" cy="385" rx="6" ry="10" fill="#3A2010" opacity="0.5"/>
    <ellipse cx="472" cy="400" rx="5" ry="8" fill="#3A2010" opacity="0.4"/>
    <ellipse cx="488" cy="400" rx="4" ry="7" fill="#3A2010" opacity="0.4"/>
  </g>
  <g transform="translate(170, 80)" filter="url(#shadow)">
    <ellipse cx="130" cy="35" rx="118" ry="28" fill="#E8DFD0"/>
    <ellipse cx="130" cy="25" rx="118" ry="28" fill="#EDE3D5"/>
    <ellipse cx="130" cy="16" rx="116" ry="26" fill="#F0E8DC"/>
    <ellipse cx="130" cy="8" rx="114" ry="24" fill="#F5EEE4"/>
    <g fill="#C4A882" opacity="0.35">
      <circle cx="105" cy="6" r="2.5"/><circle cx="120" cy="6" r="2.5"/><circle cx="135" cy="6" r="2.5"/>
      <circle cx="150" cy="6" r="2.5"/><circle cx="112" cy="14" r="2.5"/><circle cx="127" cy="14" r="2.5"/>
      <circle cx="142" cy="14" r="2.5"/><circle cx="157" cy="14" r="2.5"/>
    </g>
    <rect x="20" y="35" width="220" height="20" rx="4" fill="#C4A882" opacity="0.5"/>
    <rect x="18" y="55" width="224" height="310" rx="12" fill="url(#shaker)"/>
    <rect x="22" y="60" width="10" height="298" rx="5" fill="#FFFFFF" opacity="0.4"/>
    <rect x="26" y="280" width="208" height="80" rx="8" fill="#F5EED8" opacity="0.5"/>
    <rect x="35" y="100" width="190" height="170" rx="5" fill="#FFFFFF" opacity="0.8"/>
    <rect x="48" y="116" width="164" height="4" rx="2" fill="#3A2A10" opacity="0.42"/>
    <rect x="62" y="128" width="136" height="2" rx="1" fill="#3A2A10" opacity="0.26"/>
    <rect x="48" y="148" width="164" height="14" rx="3" fill="#E8C090" opacity="0.5"/>
    <rect x="48" y="169" width="164" height="2" rx="1" fill="#3A2A10" opacity="0.16"/>
    <rect x="48" y="178" width="128" height="2" rx="1" fill="#3A2A10" opacity="0.13"/>
    <rect x="48" y="187" width="148" height="2" rx="1" fill="#3A2A10" opacity="0.13"/>
    <rect x="48" y="244" width="68" height="2" rx="1" fill="#E8C090" opacity="0.4"/>
    <rect x="18" y="357" width="224" height="8" rx="4" fill="#C4A882" opacity="0.35"/>
  </g>
</svg>