<svg xmlns="http://www.w3.org/2000/svg" viewBox="0 0 600 600" width="600" height="600">
  <defs>
    <radialGradient id="bg" cx="50%" cy="40%" r="70%"><stop offset="0%" stop-color="#FFF9ED"/><stop offset="100%" stop-color="#F5E8C0"/></radialGradient>
    <linearGradient id="bottle" x1="0%" y1="0%" x2="100%" y2="100%"><stop offset="0%" stop-color="#FFF5D0" stop-opacity="0.85"/><stop offset="50%" stop-color="#F0D880" stop-opacity="0.8"/><stop offset="100%" stop-color="#D4A830" stop-opacity="0.9"/></linearGradient>
    <filter id="shadow"><feDropShadow dx="0" dy="12" stdDeviation="18" flood-color="#806020" flood-opacity="0.18"/></filter>
  </defs>
  <rect width="600" height="600" fill="url(#bg)"/>
  <g fill="#D4A830" opacity="0.3">
    <circle cx="120" cy="200" r="3"/><circle cx="140" cy="185" r="2"/><circle cx="108" cy="218" r="2.5"/>
    <circle cx="132" cy="210" r="1.5"/><circle cx="150" cy="195" r="3"/>
    <circle cx="460" cy="380" r="3"/><circle cx="480" cy="365" r="2"/><circle cx="448" cy="398" r="2.5"/>
    <circle cx="472" cy="390" r="1.5"/>
  </g>
  <g opacity="0.2" fill="#8A7030">
    <ellipse cx="460" cy="150" rx="55" ry="22" transform="rotate(-35 460 150)"/>
    <ellipse cx="430" cy="170" rx="45" ry="18" transform="rotate(20 430 170)"/>
  </g>
  <g transform="translate(168, 50)" filter="url(#shadow)">
    <rect x="96" y="0" width="72" height="14" rx="5" fill="#B89020"/>
    <rect x="118" y="14" width="28" height="55" rx="5" fill="#C8A028"/>
    <rect x="72" y="69" width="120" height="32" rx="8" fill="#B89020"/>
    <rect x="79" y="73" width="106" height="24" rx="6" fill="#C8A028"/>
    <path d="M56 101 Q48 116 38 136 L38 450 Q38 475 82 478 L182 478 Q226 478 226 450 L226 136 Q216 116 208 101 Z" fill="url(#bottle)"/>
    <path d="M48 140 L48 440" stroke="#FFE870" stroke-width="3" fill="none" opacity="0.35"/>
    <path d="M214 140 L214 440" stroke="#D4A030" stroke-width="2" fill="none" opacity="0.25"/>
    <rect x="52" y="175" width="160" height="195" rx="5" fill="#FFFFFF" opacity="0.72"/>
    <rect x="52" y="175" width="160" height="7" rx="3.5" fill="#D4A830" opacity="0.7"/>
    <rect x="65" y="196" width="134" height="4" rx="2" fill="#3A2A00" opacity="0.42"/>
    <rect x="78" y="208" width="108" height="2" rx="1" fill="#3A2A00" opacity="0.26"/>
    <rect x="65" y="228" width="134" height="14" rx="3" fill="#D4A830" opacity="0.5"/>
    <rect x="65" y="249" width="134" height="2" rx="1" fill="#3A2A00" opacity="0.16"/>
    <rect x="65" y="258" width="105" height="2" rx="1" fill="#3A2A00" opacity="0.13"/>
    <rect x="65" y="267" width="122" height="2" rx="1" fill="#3A2A00" opacity="0.13"/>
    <rect x="65" y="340" width="65" height="2" rx="1" fill="#D4A830" opacity="0.42"/>
    <ellipse cx="132" cy="478" rx="94" ry="10" fill="#B89020" opacity="0.3"/>
  </g>
</svg>