<svg xmlns="http://www.w3.org/2000/svg" viewBox="0 0 600 600" width="600" height="600">
  <defs>
    <radialGradient id="bg" cx="50%" cy="50%" r="70%">
      <stop offset="0%" stop-color="#1A1632"/>
      <stop offset="100%" stop-color="#0D0B1E"/>
    </radialGradient>
    <linearGradient id="bottle" x1="0%" y1="0%" x2="100%" y2="100%">
      <stop offset="0%" stop-color="#2A2645"/>
      <stop offset="50%" stop-color="#1E1A38"/>
      <stop offset="100%" stop-color="#12102A"/>
    </linearGradient>
    <linearGradient id="cap" x1="0%" y1="0%" x2="100%" y2="100%">
      <stop offset="0%" stop-color="#9B8FC0"/>
      <stop offset="100%" stop-color="#6B5F9E"/>
    </linearGradient>
    <filter id="shadow">
      <feDropShadow dx="0" dy="15" stdDeviation="20" flood-color="#000010" flood-opacity="0.5"/>
    </filter>
    <filter id="starGlow">
      <feGaussianBlur stdDeviation="3" result="blur"/>
      <feMerge><feMergeNode in="blur"/><feMergeNode in="SourceGraphic"/></feMerge>
    </filter>
  </defs>
  <rect width="600" height="600" fill="url(#bg)"/>
  <g fill="#FAFAF7" filter="url(#starGlow)">
    <circle cx="80" cy="100" r="1.5" opacity="0.8"/>
    <circle cx="150" cy="60" r="1" opacity="0.6"/>
    <circle cx="480" cy="80" r="2" opacity="0.9"/>
    <circle cx="530" cy="150" r="1" opacity="0.5"/>
    <circle cx="100" cy="420" r="1.5" opacity="0.7"/>
    <circle cx="500" cy="500" r="1" opacity="0.4"/>
    <circle cx="420" cy="350" r="1" opacity="0.6"/>
    <circle cx="50" cy="300" r="1.5" opacity="0.5"/>
  </g>
  <path d="M460 80 A50 50 0 1 1 490 145 A35 35 0 1 0 460 80Z" fill="#9B8FC0" opacity="0.3"/>
  <g transform="translate(215, 50)" filter="url(#shadow)">
    <ellipse cx="85" cy="18" rx="30" ry="18" fill="url(#cap)"/>
    <rect x="60" y="0" width="50" height="38" rx="6" fill="url(#cap)"/>
    <rect x="76" y="38" width="18" height="28" rx="3" fill="#6B5F9E"/>
    <rect x="60" y="66" width="50" height="8" rx="4" fill="#4A4272"/>
    <rect x="50" y="74" width="70" height="360" rx="10" fill="url(#bottle)"/>
    <rect x="55" y="80" width="8" height="340" rx="4" fill="#3A3660" opacity="0.8"/>
    <rect x="58" y="160" width="54" height="130" rx="3" fill="#F0EEF8" opacity="0.12"/>
    <rect x="64" y="175" width="42" height="3" rx="1.5" fill="#D4CFEE" opacity="0.7"/>
    <rect x="68" y="185" width="34" height="2" rx="1" fill="#C4BEDF" opacity="0.5"/>
    <rect x="64" y="200" width="42" height="8" rx="2" fill="#9B8FC0" opacity="0.6"/>
    <rect x="64" y="216" width="42" height="2" rx="1" fill="#C4BEDF" opacity="0.4"/>
    <rect x="64" y="224" width="30" height="2" rx="1" fill="#C4BEDF" opacity="0.3"/>
    <circle cx="85" cy="400" r="3" fill="#9B8FC0" opacity="0.3"/>
    <circle cx="75" cy="415" r="2" fill="#9B8FC0" opacity="0.2"/>
    <circle cx="95" cy="415" r="2" fill="#9B8FC0" opacity="0.2"/>
    <ellipse cx="85" cy="434" rx="35" ry="6" fill="#12102A"/>
  </g>
  <path d="M0 480 Q300 440 600 500" stroke="#6B5F9E" stroke-width="0.8" fill="none" opacity="0.3"/>
  <path d="M0 510 Q300 470 600 530" stroke="#9B8FC0" stroke-width="0.5" fill="none" opacity="0.2"/>
</svg>