<svg xmlns="http://www.w3.org/2000/svg" viewBox="0 0 600 600" width="600" height="600">
  <defs>
    <radialGradient id="bg" cx="50%" cy="40%" r="70%">
      <stop offset="0%" stop-color="#1E1A30"/>
      <stop offset="100%" stop-color="#0E0C20"/>
    </radialGradient>
    <linearGradient id="jar" x1="0%" y1="0%" x2="100%" y2="100%">
      <stop offset="0%" stop-color="#2A2548"/>
      <stop offset="100%" stop-color="#1A1830"/>
    </linearGradient>
    <radialGradient id="cream" cx="40%" cy="30%" r="70%">
      <stop offset="0%" stop-color="#E8DFD0"/>
      <stop offset="100%" stop-color="#C4A882"/>
    </radialGradient>
    <filter id="shadow">
      <feDropShadow dx="0" dy="15" stdDeviation="22" flood-color="#000010" flood-opacity="0.5"/>
    </filter>
    <filter id="moonGlow">
      <feGaussianBlur stdDeviation="6" result="blur"/>
      <feMerge><feMergeNode in="blur"/><feMergeNode in="SourceGraphic"/></feMerge>
    </filter>
  </defs>
  <rect width="600" height="600" fill="url(#bg)"/>
  <circle cx="450" cy="120" r="55" fill="#E8DFD0" opacity="0.08" filter="url(#moonGlow)"/>
  <circle cx="450" cy="120" r="40" fill="#E8DFD0" opacity="0.12"/>
  <circle cx="450" cy="120" r="30" fill="#FAFAF7" opacity="0.15"/>
  <g fill="#E8DFD0">
    <circle cx="80" cy="100" r="1.5" opacity="0.6"/>
    <circle cx="200" cy="60" r="1" opacity="0.5"/>
    <circle cx="150" cy="180" r="1" opacity="0.4"/>
    <circle cx="500" cy="200" r="1.5" opacity="0.5"/>
    <circle cx="120" cy="420" r="1" opacity="0.4"/>
    <circle cx="540" cy="380" r="1.5" opacity="0.55"/>
  </g>
  <g transform="translate(145, 195)" filter="url(#shadow)">
    <ellipse cx="155" cy="230" rx="138" ry="22" fill="#0E0C20" opacity="0.8"/>
    <rect x="20" y="80" width="270" height="150" rx="10" fill="url(#jar)"/>
    <rect x="25" y="85" width="8" height="140" rx="4" fill="#3A3560" opacity="0.6"/>
    <ellipse cx="155" cy="80" rx="133" ry="22" fill="#2A2548"/>
    <ellipse cx="155" cy="74" rx="128" ry="18" fill="url(#cream)"/>
    <path d="M100 72 Q155 60 210 72 Q155 84 100 72Z" fill="#FAFAF7" opacity="0.3"/>
    <ellipse cx="155" cy="60" rx="140" ry="26" fill="#2A2548"/>
    <ellipse cx="155" cy="48" rx="140" ry="26" fill="#22204A"/>
    <ellipse cx="155" cy="36" rx="138" ry="24" fill="#1A1838"/>
    <ellipse cx="155" cy="24" rx="136" ry="22" fill="#16142E"/>
    <ellipse cx="155" cy="14" rx="134" ry="20" fill="#12102A"/>
    <ellipse cx="155" cy="12" rx="100" ry="14" fill="none" stroke="#C4A882" stroke-width="1.5"/>
    <text x="155" y="18" text-anchor="middle" font-family="Georgia, serif" font-size="16" fill="#C4A882" opacity="0.85" font-style="italic">L</text>
    <rect x="45" y="100" width="220" height="110" rx="4" fill="#FFFFFF" opacity="0.07"/>
    <rect x="60" y="115" width="190" height="3" rx="1.5" fill="#C4A882" opacity="0.7"/>
    <rect x="75" y="126" width="160" height="2" rx="1" fill="#E8DFD0" opacity="0.5"/>
    <rect x="60" y="145" width="190" height="12" rx="3" fill="#C4A882" opacity="0.35"/>
    <rect x="60" y="163" width="190" height="2" rx="1" fill="#E8DFD0" opacity="0.3"/>
    <rect x="60" y="172" width="140" height="2" rx="1" fill="#E8DFD0" opacity="0.25"/>
    <rect x="60" y="195" width="70" height="2" rx="1" fill="#C4A882" opacity="0.4"/>
  </g>
</svg>