<svg xmlns="http://www.w3.org/2000/svg" viewBox="0 0 600 600" width="600" height="600">
  <defs>
    <radialGradient id="bg" cx="50%" cy="40%" r="70%">
      <stop offset="0%" stop-color="#F5F8F2"/>
      <stop offset="100%" stop-color="#E2EDD8"/>
    </radialGradient>
    <linearGradient id="bottle" x1="0%" y1="0%" x2="100%" y2="100%">
      <stop offset="0%" stop-color="#F8FAF5"/>
      <stop offset="50%" stop-color="#E8F0E0"/>
      <stop offset="100%" stop-color="#C8DCB8"/>
    </linearGradient>
    <filter id="shadow">
      <feDropShadow dx="0" dy="10" stdDeviation="15" flood-color="#4A6A30" flood-opacity="0.15"/>
    </filter>
  </defs>
  <rect width="600" height="600" fill="url(#bg)"/>
  <g fill="none" stroke="#8AAA70" stroke-width="0.5" opacity="0.25">
    <polygon points="120,150 155,130 190,150 190,190 155,210 120,190"/>
    <polygon points="450,380 485,360 520,380 520,420 485,440 450,420"/>
    <polygon points="80,350 115,330 150,350 150,390 115,410 80,390"/>
  </g>
  <g transform="translate(200, 60)" filter="url(#shadow)">
    <rect x="50" y="0" width="100" height="55" rx="5" fill="#7A9A60"/>
    <rect x="58" y="5" width="84" height="45" rx="4" fill="#8AAA70"/>
    <rect x="80" y="18" width="40" height="16" rx="4" fill="#6A8A50"/>
    <rect x="68" y="55" width="64" height="18" rx="3" fill="#8AAA70"/>
    <rect x="50" y="73" width="100" height="390" rx="8" fill="url(#bottle)"/>
    <rect x="53" y="76" width="6" height="380" rx="3" fill="#FFFFFF" opacity="0.4"/>
    <rect x="141" y="76" width="6" height="380" rx="3" fill="#C8DCB8" opacity="0.3"/>
    <rect x="60" y="160" width="80" height="160" rx="3" fill="#FFFFFF" opacity="0.7"/>
    <rect x="68" y="175" width="64" height="3" rx="1.5" fill="#3A5A20" opacity="0.5"/>
    <rect x="72" y="185" width="56" height="2" rx="1" fill="#3A5A20" opacity="0.3"/>
    <rect x="68" y="202" width="64" height="10" rx="2" fill="#8AAA70" opacity="0.7"/>
    <rect x="68" y="219" width="64" height="2" rx="1" fill="#3A5A20" opacity="0.2"/>
    <rect x="68" y="228" width="50" height="2" rx="1" fill="#3A5A20" opacity="0.15"/>
    <rect x="68" y="237" width="58" height="2" rx="1" fill="#3A5A20" opacity="0.15"/>
    <rect x="68" y="290" width="35" height="2" rx="1" fill="#8AAA70" opacity="0.4"/>
    <rect x="50" y="455" width="100" height="8" rx="4" fill="#7A9A60" opacity="0.4"/>
  </g>
  <g fill="#8AAA70" opacity="0.2">
    <circle cx="130" cy="420" r="3"/>
    <circle cx="145" cy="435" r="2"/>
    <circle cx="130" cy="450" r="3"/>
    <circle cx="460" cy="180" r="3"/>
    <circle cx="475" cy="165" r="2"/>
    <circle cx="490" cy="180" r="3"/>
  </g>
</svg>