<svg xmlns="http://www.w3.org/2000/svg" viewBox="0 0 600 600" width="600" height="600">
  <defs>
    <radialGradient id="bg" cx="50%" cy="40%" r="70%"><stop offset="0%" stop-color="#FAF7F0"/><stop offset="100%" stop-color="#EDE5D5"/></radialGradient>
    <linearGradient id="tube" x1="0%" y1="0%" x2="100%" y2="100%"><stop offset="0%" stop-color="#FFFFFF"/><stop offset="100%" stop-color="#F5EFE5"/></linearGradient>
    <filter id="shadow"><feDropShadow dx="0" dy="8" stdDeviation="14" flood-color="#605040" flood-opacity="0.15"/></filter>
  </defs>
  <rect width="600" height="600" fill="url(#bg)"/>
  <g opacity="0.2" fill="none" stroke="#C4A882" stroke-width="1.2">
    <path d="M100 300 Q200 240 300 300 Q200 360 100 300Z"/>
    <circle cx="300" cy="300" r="35"/>
    <circle cx="300" cy="300" r="20"/>
  </g>
  <g transform="translate(215, 80)" filter="url(#shadow)">
    <ellipse cx="85" cy="8" rx="18" ry="8" fill="#C4A882"/>
    <ellipse cx="85" cy="4" rx="14" ry="6" fill="#D4B892"/>
    <rect x="68" y="8" width="34" height="10" rx="3" fill="#C4A882"/>
    <rect x="58" y="18" width="54" height="44" rx="5" fill="#E8DFD0"/>
    <rect x="63" y="22" width="44" height="36" rx="4" fill="#EDE8DE"/>
    <line x1="72" y1="22" x2="72" y2="58" stroke="#C4A882" stroke-width="0.8" opacity="0.5"/>
    <line x1="82" y1="22" x2="82" y2="58" stroke="#C4A882" stroke-width="0.8" opacity="0.5"/>
    <line x1="92" y1="22" x2="92" y2="58" stroke="#C4A882" stroke-width="0.8" opacity="0.5"/>
    <line x1="102" y1="22" x2="102" y2="58" stroke="#C4A882" stroke-width="0.8" opacity="0.5"/>
    <rect x="58" y="62" width="54" height="368" rx="8" fill="url(#tube)"/>
    <rect x="62" y="67" width="6" height="355" rx="3" fill="#FFFFFF" opacity="0.55"/>
    <rect x="64" y="130" width="42" height="180" rx="3" fill="#FFFFFF" opacity="0.82"/>
    <rect x="68" y="142" width="34" height="3" rx="1.5" fill="#3A2A10" opacity="0.45"/>
    <rect x="70" y="152" width="30" height="2" rx="1" fill="#3A2A10" opacity="0.28"/>
    <rect x="68" y="168" width="34" height="10" rx="2" fill="#C4A882" opacity="0.55"/>
    <rect x="68" y="185" width="34" height="2" rx="1" fill="#3A2A10" opacity="0.16"/>
    <rect x="68" y="193" width="28" height="2" rx="1" fill="#3A2A10" opacity="0.13"/>
    <rect x="68" y="201" width="32" height="2" rx="1" fill="#3A2A10" opacity="0.13"/>
    <rect x="68" y="280" width="20" height="2" rx="1" fill="#C4A882" opacity="0.4"/>
    <rect x="58" y="422" width="54" height="8" rx="4" fill="#C4A882" opacity="0.4"/>
  </g>
</svg>