<svg xmlns="http://www.w3.org/2000/svg" viewBox="0 0 600 600" width="600" height="600">
  <defs>
    <radialGradient id="bg" cx="50%" cy="40%" r="70%">
      <stop offset="0%" stop-color="#FFFEF0"/>
      <stop offset="100%" stop-color="#F5EDD5"/>
    </radialGradient>
    <linearGradient id="bottle" x1="0%" y1="0%" x2="100%" y2="100%">
      <stop offset="0%" stop-color="#FFFFFF"/>
      <stop offset="60%" stop-color="#FFFBF0"/>
      <stop offset="100%" stop-color="#F5E8C0"/>
    </linearGradient>
    <filter id="shadow">
      <feDropShadow dx="0" dy="12" stdDeviation="18" flood-color="#806020" flood-opacity="0.15"/>
    </filter>
  </defs>
  <rect width="600" height="600" fill="url(#bg)"/>
  <g stroke="#F5C842" stroke-width="1.2" fill="none" opacity="0.3">
    <line x1="450" y1="150" x2="450" y2="80"/>
    <line x1="450" y1="150" x2="520" y2="90"/>
    <line x1="450" y1="150" x2="530" y2="150"/>
    <line x1="450" y1="150" x2="510" y2="210"/>
    <line x1="450" y1="150" x2="450" y2="220"/>
    <line x1="450" y1="150" x2="390" y2="210"/>
    <line x1="450" y1="150" x2="370" y2="150"/>
    <line x1="450" y1="150" x2="390" y2="90"/>
  </g>
  <circle cx="450" cy="150" r="30" fill="#F5C842" opacity="0.25"/>
  <circle cx="450" cy="150" r="20" fill="#F5D842" opacity="0.35"/>
  <path d="M115 350 Q115 440 185 490 Q220 510 240 520 Q260 510 295 490 Q365 440 365 350 L365 270 L240 250 L115 270 Z" fill="#F5C842" opacity="0.12"/>
  <path d="M125 348 Q125 432 190 480 Q220 498 240 508 Q260 498 290 480 Q355 432 355 348 L355 278 L240 260 L125 278 Z" fill="none" stroke="#F5C842" stroke-width="1" opacity="0.3"/>
  <g transform="translate(200, 55)" filter="url(#shadow)">
    <rect x="58" y="0" width="84" height="52" rx="7" fill="#D4A830"/>
    <rect x="65" y="6" width="70" height="40" rx="5" fill="#E8C050"/>
    <rect x="78" y="16" width="44" height="20" rx="4" fill="#FFFFFF"/>
    <text x="100" y="31" text-anchor="middle" font-family="Arial, sans-serif" font-size="10" font-weight="bold" fill="#D4A830">SPF 50</text>
    <rect x="72" y="52" width="56" height="18" rx="4" fill="#C09820"/>
    <rect x="52" y="70" width="96" height="380" rx="10" fill="url(#bottle)"/>
    <rect x="57" y="75" width="8" height="368" rx="4" fill="#FFFFFF" opacity="0.5"/>
    <rect x="60" y="160" width="80" height="155" rx="3" fill="#FFFFFF" opacity="0.8"/>
    <rect x="60" y="160" width="80" height="6" rx="3" fill="#F5C842" opacity="0.7"/>
    <rect x="67" y="178" width="66" height="3" rx="1.5" fill="#1A1A1A" opacity="0.45"/>
    <rect x="71" y="188" width="58" height="2" rx="1" fill="#1A1A1A" opacity="0.28"/>
    <rect x="67" y="206" width="66" height="12" rx="2.5" fill="#F5C842" opacity="0.5"/>
    <rect x="67" y="225" width="66" height="2" rx="1" fill="#1A1A1A" opacity="0.18"/>
    <rect x="67" y="234" width="50" height="2" rx="1" fill="#1A1A1A" opacity="0.14"/>
    <rect x="67" y="243" width="60" height="2" rx="1" fill="#1A1A1A" opacity="0.14"/>
    <rect x="67" y="290" width="36" height="2" rx="1" fill="#F5C842" opacity="0.5"/>
    <rect x="52" y="442" width="96" height="8" rx="4" fill="#C09820" opacity="0.4"/>
  </g>
</svg>