<svg xmlns="http://www.w3.org/2000/svg" viewBox="0 0 600 600" width="600" height="600">
  <defs>
    <radialGradient id="bg" cx="50%" cy="40%" r="70%">
      <stop offset="0%" stop-color="#F8FFF8"/>
      <stop offset="100%" stop-color="#E8F5E8"/>
    </radialGradient>
    <linearGradient id="tube" x1="0%" y1="0%" x2="100%" y2="100%">
      <stop offset="0%" stop-color="#FFFFFF"/>
      <stop offset="70%" stop-color="#F0FAF0"/>
      <stop offset="100%" stop-color="#D0EAD0"/>
    </linearGradient>
    <filter id="shadow">
      <feDropShadow dx="0" dy="10" stdDeviation="16" flood-color="#406040" flood-opacity="0.12"/>
    </filter>
  </defs>
  <rect width="600" height="600" fill="url(#bg)"/>
  <g stroke="#B0C890" stroke-width="1.5" fill="none" opacity="0.4">
    <path d="M100 500 L120 350 L110 320"/>
    <path d="M110 380 L95 360"/>
    <path d="M118 350 L132 335"/>
    <path d="M115 320 L100 305"/>
    <path d="M470 520 L490 370 L480 340"/>
    <path d="M480 400 L465 380"/>
    <path d="M488 370 L502 355"/>
    <path d="M485 340 L470 325"/>
  </g>
  <g fill="#D4B880" opacity="0.35">
    <ellipse cx="95" cy="355" rx="8" ry="14" transform="rotate(-15 95 355)"/>
    <ellipse cx="132" cy="330" rx="7" ry="12" transform="rotate(10 132 330)"/>
    <ellipse cx="100" cy="300" rx="7" ry="12" transform="rotate(-5 100 300)"/>
    <ellipse cx="465" cy="375" rx="8" ry="14" transform="rotate(-15 465 375)"/>
  </g>
  <g transform="translate(188, 60)" filter="url(#shadow)">
    <ellipse cx="112" cy="16" rx="42" ry="16" fill="#8AB880"/>
    <rect x="74" y="0" width="76" height="32" rx="10" fill="#8AB880"/>
    <rect x="95" y="32" width="34" height="48" rx="5" fill="#70A060"/>
    <rect x="64" y="80" width="96" height="26" rx="8" fill="#8AB880"/>
    <rect x="70" y="84" width="84" height="18" rx="6" fill="#A0C890"/>
    <rect x="58" y="106" width="108" height="355" rx="16" fill="url(#tube)"/>
    <rect x="62" y="110" width="9" height="346" rx="4.5" fill="#FFFFFF" opacity="0.55"/>
    <rect x="155" y="110" width="7" height="346" rx="3.5" fill="#C8E0C8" opacity="0.4"/>
    <rect x="66" y="178" width="92" height="140" rx="4" fill="#FFFFFF" opacity="0.82"/>
    <path d="M66 200 Q78 192 90 200 Q102 208 114 200 Q126 192 138 200 Q150 208 158 200" stroke="#8AB880" stroke-width="1.5" fill="none"/>
    <rect x="74" y="213" width="76" height="3" rx="1.5" fill="#2A4A2A" opacity="0.45"/>
    <rect x="78" y="223" width="68" height="2" rx="1" fill="#2A4A2A" opacity="0.28"/>
    <rect x="74" y="240" width="76" height="11" rx="2.5" fill="#8AB880" opacity="0.5"/>
    <rect x="74" y="258" width="76" height="2" rx="1" fill="#2A4A2A" opacity="0.18"/>
    <rect x="74" y="267" width="58" height="2" rx="1" fill="#2A4A2A" opacity="0.14"/>
    <rect x="74" y="295" width="38" height="2" rx="1" fill="#8AB880" opacity="0.45"/>
    <rect x="58" y="453" width="108" height="8" rx="4" fill="#70A060" opacity="0.4"/>
    <rect x="64" y="461" width="96" height="4" rx="2" fill="#8AB880" opacity="0.3"/>
  </g>
  <g opacity="0.25">
    <circle cx="155" cy="150" r="8" fill="#E8D890"/>
    <circle cx="145" cy="148" r="4" fill="#D8C870"/>
    <circle cx="165" cy="148" r="4" fill="#D8C870"/>
    <circle cx="155" cy="138" r="4" fill="#D8C870"/>
    <circle cx="155" cy="158" r="4" fill="#D8C870"/>
  </g>
</svg>